<svg width="46" height="46" viewBox="0 0 46 46" fill="none" xmlns="http://www.w3.org/2000/svg">
<circle cx="23" cy="23" r="22.5" fill="#18181B" stroke="url(#paint0_linear_52_1569)"/>
<path fill-rule="evenodd" clip-rule="evenodd" d="M22.6455 13C16.7461 13 12 17.7461 12 23.6455C12 28.3473 15.0606 32.3394 19.2745 33.7588C19.8067 33.8475 19.9842 33.537 19.9842 33.2265C19.9842 32.9604 19.9842 32.295 19.9842 31.4079C17.0123 32.0733 16.3913 29.9885 16.3913 29.9885C15.9034 28.7465 15.1937 28.436 15.1937 28.436C14.2178 27.7707 15.2824 27.7707 15.2824 27.7707C16.3469 27.8594 16.9236 28.8796 16.9236 28.8796C17.855 30.5208 19.4075 30.0329 20.0285 29.7667C20.1172 29.057 20.3834 28.6135 20.6939 28.3473C18.343 28.0812 15.859 27.1497 15.859 23.0689C15.859 21.9156 16.2582 20.9398 16.9679 20.2301C16.8792 19.964 16.48 18.8994 17.0566 17.3913C17.0566 17.3913 17.9438 17.1251 19.9842 18.5002C20.8269 18.2784 21.7584 18.1453 22.6455 18.1453C23.5327 18.1453 24.4642 18.2784 25.3069 18.5002C27.3473 17.1251 28.2344 17.3913 28.2344 17.3913C28.8111 18.855 28.4562 19.9196 28.3232 20.2301C28.9885 20.9842 29.4321 21.9156 29.4321 23.0689C29.4321 27.1497 26.9481 28.0368 24.5529 28.303C24.9521 28.6135 25.2626 29.2788 25.2626 30.2546C25.2626 31.6741 25.2626 32.8273 25.2626 33.1822C25.2626 33.4483 25.44 33.8032 26.0166 33.7144C30.2305 32.3394 33.2911 28.3473 33.2911 23.6455C33.2911 17.7461 28.5449 13 22.6455 13Z" fill="white"/>
<defs>
<linearGradient id="paint0_linear_52_1569" x1="0" y1="23" x2="46" y2="23" gradientUnits="userSpaceOnUse">
<stop stop-color="#0CBAF1"/>
<stop offset="1" stop-color="#E95CE9"/>
</linearGradient>
</defs>
</svg>
