<svg width="52" height="56" viewBox="0 0 52 56" fill="none" xmlns="http://www.w3.org/2000/svg">
<g filter="url(#filter0_d_84_3575)">
<mask id="mask0_84_3575" style="mask-type:luminance" maskUnits="userSpaceOnUse" x="2" y="0" width="48" height="48">
<path d="M2 3.8147e-06H50V48H2V3.8147e-06Z" fill="white"/>
</mask>
<g mask="url(#mask0_84_3575)">
<path fill-rule="evenodd" clip-rule="evenodd" d="M9.34985 6.64455C9.34985 8.43325 10.8098 9.89355 12.5987 9.89355C12.987 9.89355 13.3018 9.57875 13.3018 9.19043C13.3018 8.8021 12.987 8.4873 12.5987 8.4873C11.5866 8.4873 10.7561 7.65673 10.7561 6.64455V3.24827C10.7561 2.23609 11.5866 1.40552 12.5987 1.40552C13.614 1.40552 14.444 2.23662 14.444 3.24827V4.94637C14.444 5.33469 14.7588 5.64949 15.1472 5.64949C15.5355 5.64949 15.8503 5.33469 15.8503 4.94637V3.24827C15.8503 1.45906 14.3897 -0.000725746 12.5987 -0.000725746C10.8098 -0.000725746 9.34985 1.45958 9.34985 3.24827V6.64455Z" fill="url(#paint0_linear_84_3575)"/>
<path fill-rule="evenodd" clip-rule="evenodd" d="M18.5045 6.64455C18.5045 8.43328 19.9646 9.89355 21.7534 9.89355C22.1417 9.89355 22.4565 9.57875 22.4565 9.19043C22.4565 8.8021 22.1417 8.4873 21.7534 8.4873C20.7413 8.4873 19.9108 7.6567 19.9108 6.64455V3.24827C19.9108 2.23613 20.7413 1.40552 21.7534 1.40552C22.7687 1.40552 23.5988 2.23662 23.5988 3.24827V4.94637C23.5988 5.33469 23.9136 5.64949 24.3019 5.64949C24.6902 5.64949 25.005 5.33469 25.005 4.94637V3.24827C25.005 1.45906 23.5444 -0.000725746 21.7534 -0.000725746C19.9646 -0.000725746 18.5045 1.45955 18.5045 3.24827V6.64455Z" fill="url(#paint1_linear_84_3575)"/>
<path fill-rule="evenodd" clip-rule="evenodd" d="M27.6593 6.64455C27.6593 8.43328 29.1194 9.89355 30.9082 9.89355C31.2965 9.89355 31.6113 9.57875 31.6113 9.19043C31.6113 8.8021 31.2965 8.4873 30.9082 8.4873C29.8961 8.4873 29.0656 7.6567 29.0656 6.64455V3.24827C29.0656 2.23613 29.8961 1.40552 30.9082 1.40552C31.9235 1.40552 32.7536 2.23662 32.7536 3.24827V4.94637C32.7536 5.33469 33.0684 5.64949 33.4567 5.64949C33.845 5.64949 34.1598 5.33469 34.1598 4.94637V3.24827C34.1598 1.45906 32.6992 -0.000725746 30.9082 -0.000725746C29.1194 -0.000725746 27.6593 1.45955 27.6593 3.24827V6.64455Z" fill="url(#paint2_linear_84_3575)"/>
<path fill-rule="evenodd" clip-rule="evenodd" d="M36.8141 6.64455C36.8141 8.43377 38.2747 9.89355 40.0657 9.89355C40.454 9.89355 40.7688 9.57875 40.7688 9.19043C40.7688 8.8021 40.454 8.4873 40.0657 8.4873C39.0504 8.4873 38.2203 7.65621 38.2203 6.64455V3.24827C38.2203 2.23662 39.0504 1.40552 40.0657 1.40552C41.0778 1.40552 41.9084 2.23613 41.9084 3.24827V4.94637C41.9084 5.33469 42.2232 5.64949 42.6115 5.64949C42.9998 5.64949 43.3146 5.33469 43.3146 4.94637V3.24827C43.3146 1.45955 41.8545 -0.000725746 40.0657 -0.000725746C38.2747 -0.000725746 36.8141 1.45906 36.8141 3.24827V6.64455Z" fill="url(#paint3_linear_84_3575)"/>
<path fill-rule="evenodd" clip-rule="evenodd" d="M33.9893 38.0951C34.2322 37.7922 34.1836 37.3497 33.8807 37.1067L17.0539 23.612C16.751 23.369 16.3085 23.4177 16.0655 23.7206C15.8226 24.0235 15.8712 24.4661 16.1741 24.709L33.0009 38.2038C33.3038 38.4467 33.7463 38.3981 33.9893 38.0951Z" fill="url(#paint4_linear_84_3575)"/>
<path fill-rule="evenodd" clip-rule="evenodd" d="M28.6083 25.7322C28.9113 25.9751 29.3539 25.9263 29.5967 25.6233L32.217 22.3547C32.4598 22.0517 32.4111 21.6091 32.1081 21.3663C31.8051 21.1234 31.3626 21.1721 31.1197 21.4751L28.4995 24.7438C28.2566 25.0468 28.3054 25.4893 28.6083 25.7322Z" fill="url(#paint5_linear_84_3575)"/>
<path fill-rule="evenodd" clip-rule="evenodd" d="M23.5549 26.7013C23.8474 26.9569 24.2916 26.9269 24.5471 26.6345C25.4762 25.5711 26.5944 24.2052 27.4497 22.5669C27.6294 22.2227 27.4961 21.7979 27.1518 21.6182C26.8076 21.4385 26.3829 21.5718 26.2031 21.9161C25.4269 23.403 24.398 24.6679 23.4881 25.7092C23.2326 26.0016 23.2625 26.4458 23.5549 26.7013Z" fill="url(#paint6_linear_84_3575)"/>
<path fill-rule="evenodd" clip-rule="evenodd" d="M28.7591 30.8741C29.072 31.1041 29.5121 31.0369 29.7421 30.7241C30.5602 29.6113 31.5727 28.3296 32.854 27.253C33.1513 27.0032 33.1898 26.5597 32.94 26.2624C32.6902 25.9651 32.2467 25.9266 31.9494 26.1764C30.5362 27.3638 29.4438 28.7557 28.6091 29.8911C28.3791 30.204 28.4462 30.6441 28.7591 30.8741Z" fill="url(#paint7_linear_84_3575)"/>
<path fill-rule="evenodd" clip-rule="evenodd" d="M32.0132 33.4853C32.3298 33.7102 32.7688 33.6358 32.9936 33.3192C34.0976 31.7645 35.696 29.8881 38.5897 29.7504C38.9776 29.7319 39.2771 29.4025 39.2586 29.0146C39.2402 28.6268 38.9108 28.3273 38.5229 28.3457C34.9377 28.5163 32.9964 30.8865 31.8471 32.5049C31.6222 32.8215 31.6966 33.2605 32.0132 33.4853Z" fill="url(#paint8_linear_84_3575)"/>
<path fill-rule="evenodd" clip-rule="evenodd" d="M21.3892 23.7549C21.7231 23.9531 22.1545 23.8431 22.3528 23.5092C22.7822 22.7859 23.3781 21.6129 23.1857 19.914C23.142 19.5282 22.7937 19.2508 22.4079 19.2945C22.022 19.3382 21.7446 19.6864 21.7883 20.0723C21.9306 21.3286 21.5061 22.1806 21.1436 22.7913C20.9453 23.1253 21.0553 23.5566 21.3892 23.7549Z" fill="url(#paint9_linear_84_3575)"/>
<path fill-rule="evenodd" clip-rule="evenodd" d="M12.4925 47.9736C12.769 47.9254 13.0682 47.8115 13.371 47.6721C13.3856 47.6654 13.3999 47.6582 13.414 47.6505L32.4836 37.2358C32.6899 37.1231 32.8263 36.9148 32.847 36.6806C32.8677 36.4464 32.77 36.2174 32.5866 36.0702L18.3482 24.6484C18.1648 24.5013 17.92 24.4556 17.6959 24.5266C17.4718 24.5976 17.2979 24.7759 17.2327 25.0018L11.2082 45.8603C11.2038 45.8756 11.1999 45.891 11.1966 45.9066C11.123 46.2464 11.0766 46.5714 11.0915 46.8567C11.1059 47.1319 11.1861 47.5117 11.5146 47.771C11.8414 48.029 12.2271 48.0198 12.4925 47.9736ZM12.5661 46.2269L18.291 26.4054L30.8839 36.5072L12.7617 46.4045C12.6694 46.4465 12.5875 46.4809 12.5151 46.5085C12.5266 46.4273 12.5434 46.3338 12.5661 46.2269Z" fill="url(#paint10_linear_84_3575)"/>
<path fill-rule="evenodd" clip-rule="evenodd" d="M24.2367 41.7274C24.5397 41.4845 24.5885 41.042 24.3457 40.739L16.6233 31.103C16.3804 30.8 15.9379 30.7512 15.6349 30.994C15.3319 31.2369 15.2831 31.6794 15.5259 31.9824L23.2483 41.6184C23.4912 41.9214 23.9337 41.9702 24.2367 41.7274Z" fill="url(#paint11_linear_84_3575)"/>
<path fill-rule="evenodd" clip-rule="evenodd" d="M20.0646 44.0046C20.3676 43.7617 20.4162 43.3192 20.1733 43.0162L15.0339 36.6063C14.791 36.3034 14.3485 36.2547 14.0455 36.4976C13.7426 36.7405 13.6939 37.183 13.9368 37.486L19.0762 43.8959C19.3191 44.1988 19.7616 44.2475 20.0646 44.0046Z" fill="url(#paint12_linear_84_3575)"/>
<path fill-rule="evenodd" clip-rule="evenodd" d="M17.115 45.6149C17.418 45.372 17.4666 44.9294 17.2237 44.6265L13.9099 40.4942C13.6669 40.1912 13.2244 40.1426 12.9215 40.3855C12.6185 40.6285 12.5699 41.071 12.8128 41.3739L16.1266 45.5063C16.3695 45.8092 16.8121 45.8579 17.115 45.6149Z" fill="url(#paint13_linear_84_3575)"/>
<path fill-rule="evenodd" clip-rule="evenodd" d="M27.1863 40.1171C27.4894 39.8742 27.5382 39.4317 27.2954 39.1287L23.2668 34.1007C23.024 33.7976 22.5815 33.7488 22.2784 33.9916C21.9754 34.2344 21.9265 34.6769 22.1694 34.98L26.198 40.008C26.4408 40.311 26.8833 40.3599 27.1863 40.1171ZM21.0821 32.5008C21.3852 32.258 21.4341 31.8155 21.1913 31.5124L17.7474 27.2125C17.5047 26.9094 17.0622 26.8605 16.7591 27.1033C16.456 27.346 16.4071 27.7885 16.6498 28.0916L20.0937 32.3915C20.3365 32.6946 20.779 32.7435 21.0821 32.5008Z" fill="url(#paint14_linear_84_3575)"/>
<path fill-rule="evenodd" clip-rule="evenodd" d="M4.41223 41.07C4.41223 41.6921 4.91837 42.1982 5.54051 42.1982H13.2019C13.5902 42.1982 13.905 41.8834 13.905 41.4951C13.905 41.1068 13.5902 40.792 13.2019 40.792H5.81848V5.64981H46.1815V40.792H23.2177C22.8294 40.792 22.5146 41.1068 22.5146 41.4951C22.5146 41.8834 22.8294 42.1982 23.2177 42.1982H46.4595C47.0816 42.1982 47.5878 41.6921 47.5878 41.07V5.37193C47.5878 4.7498 47.0817 4.24356 46.4595 4.24356H5.54051C4.91827 4.24356 4.41223 4.74981 4.41223 5.37193V41.07Z" fill="url(#paint15_linear_84_3575)"/>
<path fill-rule="evenodd" clip-rule="evenodd" d="M4.41235 15.8398C4.41235 16.2282 4.72715 16.543 5.11548 16.543H24.2542C24.6425 16.543 24.9573 16.2282 24.9573 15.8398C24.9573 15.4515 24.6425 15.1367 24.2542 15.1367H5.11548C4.72715 15.1367 4.41235 15.4515 4.41235 15.8398ZM26.7957 15.8398C26.7957 16.2282 27.1105 16.543 27.4989 16.543H46.8848C47.2731 16.543 47.5879 16.2282 47.5879 15.8398C47.5879 15.4515 47.2731 15.1367 46.8848 15.1367H27.4989C27.1105 15.1367 26.7957 15.4515 26.7957 15.8398ZM4.41235 12.5393C4.41235 12.9276 4.72715 13.2424 5.11548 13.2424H46.8848C47.2731 13.2424 47.5879 12.9276 47.5879 12.5393C47.5879 12.151 47.2731 11.8362 46.8848 11.8362H5.11548C4.72715 11.8362 4.41235 12.151 4.41235 12.5393Z" fill="url(#paint16_linear_84_3575)"/>
</g>
</g>
<defs>
<filter id="filter0_d_84_3575" x="-2" y="0" width="56" height="56" filterUnits="userSpaceOnUse" color-interpolation-filters="sRGB">
<feFlood flood-opacity="0" result="BackgroundImageFix"/>
<feColorMatrix in="SourceAlpha" type="matrix" values="0 0 0 0 0 0 0 0 0 0 0 0 0 0 0 0 0 0 127 0" result="hardAlpha"/>
<feOffset dy="4"/>
<feGaussianBlur stdDeviation="2"/>
<feComposite in2="hardAlpha" operator="out"/>
<feColorMatrix type="matrix" values="0 0 0 0 0 0 0 0 0 0 0 0 0 0 0 0 0 0 0.25 0"/>
<feBlend mode="normal" in2="BackgroundImageFix" result="effect1_dropShadow_84_3575"/>
<feBlend mode="normal" in="SourceGraphic" in2="effect1_dropShadow_84_3575" result="shape"/>
</filter>
<linearGradient id="paint0_linear_84_3575" x1="9.34985" y1="4.94641" x2="15.8503" y2="4.94641" gradientUnits="userSpaceOnUse">
<stop stop-color="#0CBAF1"/>
<stop offset="1" stop-color="#E95CE9"/>
</linearGradient>
<linearGradient id="paint1_linear_84_3575" x1="18.5045" y1="4.94641" x2="25.005" y2="4.94641" gradientUnits="userSpaceOnUse">
<stop stop-color="#0CBAF1"/>
<stop offset="1" stop-color="#E95CE9"/>
</linearGradient>
<linearGradient id="paint2_linear_84_3575" x1="27.6593" y1="4.94641" x2="34.1598" y2="4.94641" gradientUnits="userSpaceOnUse">
<stop stop-color="#0CBAF1"/>
<stop offset="1" stop-color="#E95CE9"/>
</linearGradient>
<linearGradient id="paint3_linear_84_3575" x1="36.8141" y1="4.94641" x2="43.3146" y2="4.94641" gradientUnits="userSpaceOnUse">
<stop stop-color="#0CBAF1"/>
<stop offset="1" stop-color="#E95CE9"/>
</linearGradient>
<linearGradient id="paint4_linear_84_3575" x1="15.9109" y1="30.9079" x2="34.1439" y2="30.9079" gradientUnits="userSpaceOnUse">
<stop stop-color="#0CBAF1"/>
<stop offset="1" stop-color="#E95CE9"/>
</linearGradient>
<linearGradient id="paint5_linear_84_3575" x1="28.345" y1="23.5492" x2="32.3715" y2="23.5492" gradientUnits="userSpaceOnUse">
<stop stop-color="#0CBAF1"/>
<stop offset="1" stop-color="#E95CE9"/>
</linearGradient>
<linearGradient id="paint6_linear_84_3575" x1="23.3145" y1="24.2066" x2="27.5297" y2="24.2066" gradientUnits="userSpaceOnUse">
<stop stop-color="#0CBAF1"/>
<stop offset="1" stop-color="#E95CE9"/>
</linearGradient>
<linearGradient id="paint7_linear_84_3575" x1="28.4724" y1="28.5111" x2="33.1048" y2="28.5111" gradientUnits="userSpaceOnUse">
<stop stop-color="#0CBAF1"/>
<stop offset="1" stop-color="#E95CE9"/>
</linearGradient>
<linearGradient id="paint8_linear_84_3575" x1="31.7172" y1="30.9801" x2="39.2594" y2="30.9801" gradientUnits="userSpaceOnUse">
<stop stop-color="#0CBAF1"/>
<stop offset="1" stop-color="#E95CE9"/>
</linearGradient>
<linearGradient id="paint9_linear_84_3575" x1="21.0449" y1="21.5717" x2="23.2228" y2="21.5717" gradientUnits="userSpaceOnUse">
<stop stop-color="#0CBAF1"/>
<stop offset="1" stop-color="#E95CE9"/>
</linearGradient>
<linearGradient id="paint10_linear_84_3575" x1="11.0887" y1="36.2464" x2="32.8497" y2="36.2464" gradientUnits="userSpaceOnUse">
<stop stop-color="#0CBAF1"/>
<stop offset="1" stop-color="#E95CE9"/>
</linearGradient>
<linearGradient id="paint11_linear_84_3575" x1="15.3715" y1="36.3607" x2="24.5001" y2="36.3607" gradientUnits="userSpaceOnUse">
<stop stop-color="#0CBAF1"/>
<stop offset="1" stop-color="#E95CE9"/>
</linearGradient>
<linearGradient id="paint12_linear_84_3575" x1="13.7822" y1="40.2511" x2="20.3279" y2="40.2511" gradientUnits="userSpaceOnUse">
<stop stop-color="#0CBAF1"/>
<stop offset="1" stop-color="#E95CE9"/>
</linearGradient>
<linearGradient id="paint13_linear_84_3575" x1="12.6582" y1="43.0002" x2="17.3783" y2="43.0002" gradientUnits="userSpaceOnUse">
<stop stop-color="#0CBAF1"/>
<stop offset="1" stop-color="#E95CE9"/>
</linearGradient>
<linearGradient id="paint14_linear_84_3575" x1="16.4955" y1="33.6102" x2="27.4498" y2="33.6102" gradientUnits="userSpaceOnUse">
<stop stop-color="#0CBAF1"/>
<stop offset="1" stop-color="#E95CE9"/>
</linearGradient>
<linearGradient id="paint15_linear_84_3575" x1="4.41223" y1="23.2209" x2="47.5878" y2="23.2209" gradientUnits="userSpaceOnUse">
<stop stop-color="#0CBAF1"/>
<stop offset="1" stop-color="#E95CE9"/>
</linearGradient>
<linearGradient id="paint16_linear_84_3575" x1="4.41235" y1="14.1896" x2="47.5879" y2="14.1896" gradientUnits="userSpaceOnUse">
<stop stop-color="#0CBAF1"/>
<stop offset="1" stop-color="#E95CE9"/>
</linearGradient>
</defs>
</svg>
